<svg width="12" height="12" viewBox="0 0 12 12" fill="none" xmlns="http://www.w3.org/2000/svg">
<path d="M10.4196 0.0724653L0.674556 4.56947C0.437573 4.67481 0.24377 4.85807 0.125348 5.0888C0.00692595 5.31953 -0.0289847 5.58383 0.0235827 5.83778C0.0761501 6.09174 0.214031 6.32007 0.414314 6.48483C0.614598 6.64958 0.865226 6.74085 1.12456 6.74347H5.24756V10.8665C5.25017 11.1258 5.34144 11.3764 5.50619 11.5767C5.67095 11.777 5.89928 11.9149 6.15324 11.9674C6.4072 12.02 6.6715 11.9841 6.90222 11.8657C7.13295 11.7473 7.31621 11.5534 7.42156 11.3165L11.9216 1.57147C11.9983 1.36209 12.0136 1.13513 11.9656 0.917356C11.9176 0.699581 11.8083 0.50008 11.6506 0.342392C11.4929 0.184705 11.2934 0.0754112 11.0757 0.0274065C10.8579 -0.0205983 10.6309 -0.0053107 10.4216 0.0714654L10.4196 0.0724653Z" fill="white"/>
</svg>
