<svg width="109" height="56" viewBox="0 0 109 56" fill="none" xmlns="http://www.w3.org/2000/svg">
<g clip-path="url(#clip0_3_172)">
<path fill-rule="evenodd" clip-rule="evenodd" d="M1.73392 8.68617C0 12.0892 0 16.544 0 25.4536V30.2261C0 39.1357 0 43.5904 1.73392 46.9934C3.25912 49.9868 5.6928 52.4205 8.68617 53.9457C12.0892 55.6796 16.544 55.6796 25.4535 55.6796H73.9743C82.8839 55.6796 87.3387 55.6796 90.7417 53.9457C93.7351 52.4205 96.1688 49.9868 97.694 46.9934C99.4279 43.5904 99.4279 39.1356 99.4279 30.2261V25.4535C99.4279 16.544 99.4279 12.0892 97.694 8.68617C96.1688 5.6928 93.7351 3.25912 90.7417 1.73392C87.3387 0 82.8839 0 73.9744 0H25.4535C16.544 0 12.0892 0 8.68617 1.73392C5.6928 3.25912 3.25912 5.6928 1.73392 8.68617ZM108.809 27.4381C108.809 24.4537 106.389 22.0343 103.405 22.0343V33.9657C106.389 33.9657 108.809 31.5463 108.809 28.562V27.4381Z" fill="#34C759"/>
<path d="M24.0246 11.6414C25.8901 11.6414 27.5991 11.9689 29.1513 12.624C30.7178 13.2649 32.0778 14.2404 33.2314 15.5506C34.3991 16.8607 35.2963 18.4984 35.9229 20.4637C36.5637 22.4147 36.8842 24.6933 36.8842 27.2994V27.3421C36.8842 30.7172 36.3644 33.6152 35.3248 36.0362C34.2852 38.4429 32.8041 40.2942 30.8816 41.5902C28.9591 42.8861 26.652 43.5341 23.9605 43.5341C21.981 43.5341 20.1866 43.178 18.5774 42.466C16.9824 41.7539 15.6651 40.7856 14.6255 39.5608C13.5859 38.3219 12.9095 36.9049 12.5962 35.3099L12.5535 35.1177H18.9192L18.9833 35.2885C19.2396 35.9009 19.5956 36.4421 20.0513 36.912C20.5213 37.382 21.0838 37.7522 21.7389 38.0228C22.394 38.2791 23.1416 38.4073 23.9818 38.4073C25.4914 38.4073 26.7232 37.973 27.6774 37.1043C28.6315 36.2356 29.3507 35.0678 29.8349 33.601C30.3333 32.1199 30.6181 30.4751 30.6893 28.6665C30.7036 28.4529 30.7107 28.2464 30.7107 28.047C30.7249 27.8334 30.7321 27.6198 30.7321 27.4062L29.7494 22.2794C29.7494 21.2398 29.5002 20.307 29.0018 19.4811C28.5034 18.6408 27.8269 17.9786 26.9724 17.4944C26.118 17.0103 25.1638 16.7682 24.11 16.7682C23.0562 16.7682 22.102 17.0103 21.2476 17.4944C20.3931 17.9644 19.7096 18.6124 19.1969 19.4383C18.6842 20.2501 18.4279 21.1686 18.4279 22.194V22.2367C18.4279 23.3048 18.67 24.2518 19.1542 25.0778C19.6526 25.8895 20.3219 26.5303 21.1621 27.0003C22.0166 27.456 22.9779 27.6839 24.0459 27.6839C25.1282 27.6839 26.0966 27.456 26.9511 27.0003C27.8198 26.5446 28.5034 25.9109 29.0018 25.0991C29.5002 24.2874 29.7494 23.3546 29.7494 22.3008V22.2794H31.0525V27.4916H30.6039C30.1909 28.4458 29.5928 29.3002 28.8095 30.055C28.0263 30.7955 27.0721 31.3794 25.9471 31.8066C24.8363 32.2339 23.5831 32.4475 22.1875 32.4475C20.208 32.4475 18.4635 32.0202 16.9539 31.1658C15.4444 30.2971 14.2624 29.108 13.4079 27.5984C12.5677 26.0889 12.1476 24.3728 12.1476 22.4503V22.4076C12.1476 20.3142 12.6603 18.4557 13.6856 16.8322C14.711 15.2088 16.1137 13.9413 17.8938 13.0299C19.6882 12.1042 21.7318 11.6414 24.0246 11.6414ZM50.5749 11.6414C52.4405 11.6414 54.1494 11.9689 55.7017 12.624C57.2682 13.2649 58.6282 14.2404 59.7817 15.5506C60.9495 16.8607 61.8467 18.4984 62.4733 20.4637C63.1141 22.4147 63.4345 24.6933 63.4345 27.2994V27.3421C63.4345 30.7172 62.9147 33.6152 61.8751 36.0362C60.8355 38.4429 59.3545 40.2942 57.4319 41.5902C55.5094 42.8861 53.2024 43.5341 50.5108 43.5341C48.5313 43.5341 46.737 43.178 45.1277 42.466C43.5328 41.7539 42.2155 40.7856 41.1759 39.5608C40.1363 38.3219 39.4598 36.9049 39.1465 35.3099L39.1038 35.1177H45.4695L45.5336 35.2885C45.79 35.9009 46.146 36.4421 46.6017 36.912C47.0716 37.382 47.6342 37.7522 48.2892 38.0228C48.9443 38.2791 49.692 38.4073 50.5322 38.4073C52.0417 38.4073 53.2736 37.973 54.2277 37.1043C55.1819 36.2356 55.901 35.0678 56.3852 33.601C56.8837 32.1199 57.1685 30.4751 57.2397 28.6665C57.2539 28.4529 57.2611 28.2464 57.2611 28.047C57.2753 27.8334 57.2824 27.6198 57.2824 27.4062L56.2998 22.2794C56.2998 21.2398 56.0506 20.307 55.5521 19.4811C55.0537 18.6408 54.3773 17.9786 53.5228 17.4944C52.6683 17.0103 51.7142 16.7682 50.6604 16.7682C49.6065 16.7682 48.6524 17.0103 47.7979 17.4944C46.9435 17.9644 46.2599 18.6124 45.7472 19.4383C45.2346 20.2501 44.9782 21.1686 44.9782 22.194V22.2367C44.9782 23.3048 45.2203 24.2518 45.7045 25.0778C46.2029 25.8895 46.8723 26.5303 47.7125 27.0003C48.5669 27.456 49.5282 27.6839 50.5963 27.6839C51.6786 27.6839 52.647 27.456 53.5014 27.0003C54.3701 26.5446 55.0537 25.9109 55.5521 25.0991C56.0506 24.2874 56.2998 23.3546 56.2998 22.3008V22.2794H57.6028V27.4916H57.1542C56.7413 28.4458 56.1431 29.3002 55.3599 30.055C54.5766 30.7955 53.6225 31.3794 52.4975 31.8066C51.3867 32.2339 50.1334 32.4475 48.7378 32.4475C46.7583 32.4475 45.0138 32.0202 43.5043 31.1658C41.9947 30.2971 40.8127 29.108 39.9583 27.5984C39.1181 26.0889 38.6979 24.3728 38.6979 22.4503V22.4076C38.6979 20.3142 39.2106 18.4557 40.236 16.8322C41.2613 15.2088 42.6641 13.9413 44.4442 13.0299C46.2385 12.1042 48.2821 11.6414 50.5749 11.6414Z" fill="white"/>
<path d="M65.6415 29.9102L79.8534 11.5724L77.5611 25.0201H89.7863L70.0732 44.4277L76.3386 29.9102H65.6415Z" fill="#FFFFFE"/>
</g>
<defs>
<clipPath id="clip0_3_172">
<rect width="108.809" height="55.6796" rx="15.9085" fill="white"/>
</clipPath>
</defs>
</svg>
