<svg width="138" height="88" viewBox="0 0 138 88" fill="none" xmlns="http://www.w3.org/2000/svg">
<path fill-rule="evenodd" clip-rule="evenodd" d="M137.967 8.23656C137.967 3.68763 134.536 0 130.303 0H122.638C118.405 0 114.973 3.68763 114.973 8.23656V79.6201C114.973 84.169 118.405 87.8566 122.638 87.8566H130.303C134.536 87.8566 137.967 84.169 137.967 79.6201V8.23656ZM84.5473 17.5713H92.2122C96.4454 17.5713 99.8771 21.3475 99.8771 26.0056V79.4224C99.8771 84.0805 96.4454 87.8566 92.2122 87.8566H84.5473C80.3142 87.8566 76.8825 84.0805 76.8825 79.4224V26.0056C76.8825 21.3475 80.3142 17.5713 84.5473 17.5713ZM53.4201 36.6069H45.7552C41.522 36.6069 38.0904 40.4311 38.0904 45.1485V79.3149C38.0904 84.0323 41.522 87.8566 45.7552 87.8566H53.4201C57.6533 87.8566 61.0849 84.0323 61.0849 79.3149V45.1485C61.0849 40.4311 57.6533 36.6069 53.4201 36.6069ZM15.3297 54.1783H7.66486C3.43167 54.1783 0 57.9478 0 62.5979V79.437C0 84.0871 3.43167 87.8566 7.66486 87.8566H15.3297C19.5629 87.8566 22.9946 84.0871 22.9946 79.437V62.5979C22.9946 57.9478 19.5629 54.1783 15.3297 54.1783Z" fill="white"/>
</svg>
