<svg width="124" height="89" viewBox="0 0 124 89" fill="none" xmlns="http://www.w3.org/2000/svg">
<path fill-rule="evenodd" clip-rule="evenodd" d="M61.5917 17.7222C79.4636 17.723 96.6521 24.3489 109.605 36.2305C110.58 37.1478 112.139 37.1362 113.1 36.2045L122.423 27.1255C122.909 26.653 123.181 26.0129 123.177 25.3469C123.173 24.6809 122.894 24.0439 122.402 23.5769C88.4054 -7.85896 34.7726 -7.85896 0.776469 23.5769C0.284012 24.0436 0.00459724 24.6804 5.62216e-05 25.3463C-0.00448479 26.0123 0.266222 26.6526 0.752273 27.1255L10.0785 36.2045C11.0385 37.1376 12.5987 37.1492 13.5734 36.2305C26.5276 24.3481 43.7181 17.7222 61.5917 17.7222ZM61.5676 48.0483C71.321 48.0477 80.7264 51.7249 87.9562 58.3656C88.934 59.308 90.4744 59.2876 91.4276 58.3195L100.678 48.8392C101.165 48.342 101.435 47.6674 101.428 46.9664C101.421 46.2654 101.137 45.5965 100.64 45.1094C78.6243 24.3363 44.5296 24.3363 22.5135 45.1094C22.0162 45.5965 21.7324 46.2657 21.7259 46.9669C21.7194 47.6681 21.9906 48.3427 22.4788 48.8392L31.7262 58.3195C32.6795 59.2876 34.2198 59.308 35.1977 58.3656C42.4227 51.7293 51.8206 48.0524 61.5676 48.0483ZM79.7076 68.1222C79.7214 68.8792 79.4551 69.6091 78.9715 70.1395L63.3304 87.7786C62.8719 88.297 62.2468 88.5888 61.5946 88.5888C60.9423 88.5888 60.3172 88.297 59.8587 87.7786L44.215 70.1395C43.7317 69.6087 43.4659 68.8786 43.4802 68.1216C43.4946 67.3645 43.7878 66.6477 44.2907 66.1402C54.2797 56.6989 68.9094 56.6989 78.8984 66.1402C79.401 66.6481 79.6938 67.3652 79.7076 68.1222Z" fill="white"/>
</svg>
